<svg width="120" height="59" viewBox="0 0 120 59" fill="none" xmlns="http://www.w3.org/2000/svg">
    <path d="M57.051 35.649c-.569-.49-1.13-.963-1.57-1.557-.914-1.211-1.106-2.567-.825-4.027.32-1.645 1.025-3.138 1.706-4.646.785-1.741 1.618-3.466 1.963-5.36.272-1.468.2-2.896-.489-4.26-.032-.073-.04-.16-.176-.185.104.482.232.955.313 1.428.216 1.284-.033 2.528-.393 3.755-.553 1.894-1.442 3.643-2.227 5.448-.545 1.252-1.066 2.504-1.266 3.868-.072.49-.064.987-.048 1.476 0 .112.08.265-.04.329s-.217-.072-.305-.144c-1.763-1.324-3.06-3.01-3.814-5.087-1.266-3.507-.953-6.9 1.042-10.054 1.106-1.75 2.676-3.073 4.495-4.068a10.398 10.398 0 0 1 5.023-1.284c1.995 0 3.878.506 5.624 1.477 2.388 1.324 4.23 3.193 5.409 5.672 1.402 2.937 1.522 5.938.328 8.97-1.202 3.034-3.373 5.28-5.945 7.182-.312.233-.609.49-.921.738-.008.008 0 .024.008.04 4.743-1.412 9.422-6.732 8.981-13.447A13.444 13.444 0 0 0 59.054 9.29c-7.892.883-12.827 7.944-11.946 14.997.489 3.891 2.34 6.996 5.472 9.323 1.346.995 2.82 1.725 4.471 2.038z" fill="#A10550"/>
    <path d="M66.45 19.987c-.241.072-.481.176-.722.224-.384.065-.456-.032-.424-.425.136-1.87-.129-3.65-1.17-5.255a2.855 2.855 0 0 0-1.522-1.204c.248.722.496 1.38.648 2.062.481 2.167.2 4.245-.688 6.259-.746 1.693-1.763 3.233-2.644 4.854-.954 1.757-1.675 3.578-1.619 5.633.016.625.088 1.251.248 1.86.017.073.105.153-.008.194-.096.04-.136-.057-.168-.129a5.53 5.53 0 0 1-.48-1.813c-.233-2.311.424-4.413 1.554-6.395.064-.112.128-.225.2-.361-.456.2-.833.538-1.282 1.26-1.282 2.07-1.866 4.308-1.506 6.731.304 2.047 1.779 3.354 3.838 3.499.4.032.8.016 1.202.008.104 0 .216.024.264-.096-1.827-.699-2.804-2.07-3.005-3.972-.16-1.485.706-2.407 2.196-2.528.617-.048 1.225 0 1.826.145.53.12 1.058.152 1.579-.04.705-.265.953-.763.769-1.493-.064-.248-.152-.481-.208-.73-.105-.457.032-.682.48-.794.497-.129.505-.129.209-.514-.137-.176-.129-.289.104-.337.416-.088.4-.313.224-.617a3.573 3.573 0 0 1-.192-.394c-.209-.561-.168-.698.328-1.035.113-.072.217-.152.32-.24.361-.33.37-.618-.007-.94a3.729 3.729 0 0 0-.761-.513c-.513-.256-.721-.682-.77-1.227l-.023-.281c0-.257-.065-.53.008-.754.096-.297.448-.113.664-.209.217-.096.45-.169.601-.377a.348.348 0 0 1-.064-.056zM50.601 5.592c1.106.337 2.011.963 2.668 1.926.032.048.096.088.145.128-.329-1.34-.834-2.567-2.156-3.241-.665-.337-1.362-.217-2.043-.112a3.587 3.587 0 0 1-2.107-.29c-.048-.023-.096-.023-.152-.04-.008 0-.024.009-.072.033.176.898.593 1.693 1.178 2.39.993 1.188 2.267 1.878 3.79 2.135a3.868 3.868 0 0 1 1.586.618c-.169-.859-.49-1.54-1.018-2.126-.513-.57-1.146-.955-1.819-1.292-.232-.072-.472-.145-.737-.321.305.024.529.072.737.192zm-.897-.224c.024 0 .04 0 .064-.008-.008.008-.016.016-.032.016-.016.008-.024-.008-.032-.008zM51.891 9.869c-.84-.49-1.722-.859-2.676-.995-.889-.128-1.594.193-2.115.923-.12.16-.232.329-.344.49-.433.657-.922 1.243-1.803 1.5 1.73.922 3.397 1.484 5.224.521.905-.473 1.714-1.123 2.82-1.388-1.53-.874-3.004-.915-4.543-.369 1.034-.802 2.228-.762 3.437-.682zM54.656 0c-1.226 1.878-1.723 3.747-.713 5.81.312.633.649 1.259.552 2.03a4.323 4.323 0 0 0 1.146-1.822c.232-.722.112-1.437.048-2.159.545 1.06.561 2.143.112 3.298 1.619-1.894 1.57-3.482.24-4.975-.28-.32-.568-.633-.833-.97A2.686 2.686 0 0 1 54.656 0zM59.91 7.029c-.6.81-1.425 1.3-2.41 1.604 1.458.53 3.052.12 3.66-1.412.193-.49.297-.995.377-1.508.129-.803.225-1.003.697-1.661-.633-.04-1.21.088-1.778.209-1.21.256-2.091.946-2.676 2.038-.353.665-.777 1.267-1.547 1.684 1.09.21 2.003.033 2.853-.537.32-.217.584-.506.873-.762.08-.185.192-.345.4-.434-.112.29-.2.578-.448.779z" fill="#A10550"/>
    <path d="M59.912 7.029c.248-.2.336-.49.448-.77-.208.08-.32.24-.4.433l-.048.337zM50.602 5.593c-.209-.12-.425-.169-.737-.177.264.185.504.257.737.321v-.144zM66.521 20.059l.08-.104c-.064-.04-.112-.024-.152.04.024.016.048.04.072.064zM53.404 7.646l.025.025-.025-.016v-.009zM49.703 5.368a.06.06 0 0 0 .032.016.06.06 0 0 0 .033-.016c-.025-.008-.049 0-.065 0zM7.19 41c1.452 0 2.53.06 3.235.18.338.06.665.15.982.27.316.121.613.271.889.451.562.361 1.027.852 1.395 1.473.368.611.552 1.297.552 2.058 0 .421-.061.827-.184 1.217a4.339 4.339 0 0 1-1.318 1.999c-.317.26-.67.475-1.058.646 1.114.32 1.962.851 2.545 1.593.592.74.889 1.627.889 2.659a5.858 5.858 0 0 1-.353 1.818 4.802 4.802 0 0 1-.904 1.563c-.389.46-.864.84-1.426 1.141-.552.3-1.186.471-1.901.511-.307.03-.828.055-1.564.075-.726.01-1.671.025-2.836.045H0V41h7.19zm-3.526 7.047h2.377c.725 0 1.298-.005 1.717-.015.429-.01.73-.03.904-.06.644-.06 1.145-.26 1.503-.601.358-.351.536-.817.536-1.398 0-.54-.158-.986-.475-1.337-.306-.35-.761-.556-1.364-.616-.195-.03-.547-.055-1.058-.075-.501-.02-1.186-.03-2.055-.03H3.664v4.132zm0 7.663h3.373c.644 0 1.17-.005 1.58-.016.418-.02.725-.055.92-.105.53-.09.965-.315 1.302-.676.338-.37.506-.866.506-1.487 0-1.122-.516-1.858-1.548-2.209-.245-.08-.634-.14-1.165-.18-.532-.04-1.217-.06-2.055-.06H3.664v4.733zM18.214 41h13.384v2.99h-9.75v3.921h9.076v3.02h-9.077v4.779H31.92v2.99H18.214V41zM47.344 58.7l-1.564-4.042h-7.236l-1.503 4.041h-3.848L40.245 41h3.833l7.237 17.7h-3.971zm-5.228-13.583-2.438 6.596h4.937l-2.5-6.596zM56.85 41v9.586c0 .751.015 1.377.045 1.878.031.49.072.852.123 1.082a2.851 2.851 0 0 0 1.088 1.743c.593.45 1.396.676 2.408.676.52 0 .976-.055 1.364-.165.389-.12.716-.276.981-.466a2.373 2.373 0 0 0 .936-1.518c.071-.32.117-.726.137-1.217.021-.5.031-1.101.031-1.803V41h3.65v9.285c0 1.082-.021 1.994-.062 2.735-.041.741-.118 1.337-.23 1.788-.184.892-.557 1.633-1.12 2.224-.245.3-.541.57-.889.811-.337.24-.736.446-1.195.616-.45.17-.966.3-1.549.39-.572.1-1.216.151-1.932.151-.869 0-1.63-.05-2.284-.15a7.899 7.899 0 0 1-1.656-.421c-.45-.2-.848-.426-1.196-.676a6.254 6.254 0 0 1-.92-.871 4.632 4.632 0 0 1-.628-.947 5.235 5.235 0 0 1-.368-1.007 12.682 12.682 0 0 1-.276-1.878 38.635 38.635 0 0 1-.077-2.614V41h3.618zM75.523 43.99h-5.381V41h14.365v2.99h-5.35V58.7h-3.634V43.99zM91.621 51.247 85.013 41h4.278l4.247 7.002L97.693 41h4.216l-6.654 10.277V58.7H91.62v-7.452zM116.029 58.7l-1.564-4.042h-7.236l-1.503 4.041h-3.848L108.931 41h3.833L120 58.7h-3.971zm-5.228-13.583-2.438 6.596h4.937l-2.499-6.596z" fill="#A10550"/>
</svg>
